<?xml version="1.0" encoding="UTF-8" standalone="no"?><!DOCTYPE svg PUBLIC "-//W3C//DTD SVG 1.1//EN" "http://www.w3.org/Graphics/SVG/1.1/DTD/svg11.dtd"><svg width="100%" height="100%" viewBox="0 0 32 32" version="1.1" xmlns="http://www.w3.org/2000/svg" xmlns:xlink="http://www.w3.org/1999/xlink" xml:space="preserve" xmlns:serif="http://www.serif.com/" style="fill-rule:evenodd;clip-rule:evenodd;stroke-linejoin:round;stroke-miterlimit:2;"><path d="M14.5,9.589c-2.378,0.283 -4.585,1.214 -6.467,2.325l-2.972,-2.974c-0.585,-0.586 -1.535,-0.586 -2.121,-0.001c-0.586,0.585 -0.586,1.535 -0.001,2.121l2.568,2.571c-2.098,1.618 -3.442,3.146 -3.633,3.37c-0.004,0.005 -0.007,0.009 -0.011,0.013c-0.379,0.455 -0.458,1.089 -0.203,1.624c0.081,0.169 0.19,0.317 0.321,0.442c0.857,0.97 6.832,7.42 14.03,7.42c7.79,-0 14.144,-7.551 14.151,-7.561c0.305,-0.379 0.407,-0.882 0.274,-1.35c-0.088,-0.307 -0.269,-0.574 -0.514,-0.766c-0.51,-0.569 -2.064,-2.211 -4.291,-3.796l2.964,-2.967c0.585,-0.586 0.585,-1.536 -0.001,-2.121c-0.586,-0.585 -1.536,-0.585 -2.121,0.001l-3.463,3.466c-1.657,-0.873 -3.523,-1.567 -5.51,-1.812l0,-3.594c0,-0.828 -0.672,-1.5 -1.5,-1.5c-0.828,-0 -1.5,0.672 -1.5,1.5l0,3.589Zm8.955,5.505c0.352,0.901 0.545,1.881 0.545,2.906c0,1.038 -0.198,2.03 -0.559,2.94c1.531,-1.028 2.744,-2.149 3.502,-2.921c-0.754,-0.77 -1.962,-1.893 -3.488,-2.925Zm-14.893,-0.043c-1.535,1.029 -2.753,2.155 -3.517,2.933c0.754,0.771 1.97,1.9 3.506,2.936c-0.356,-0.904 -0.551,-1.889 -0.551,-2.92c-0,-1.041 0.199,-2.036 0.562,-2.949Z"/></svg>